<?xml version="1.0" encoding="UTF-8"?>
<svg width="39.688mm" height="14.179mm" version="1.1" viewBox="0 0 39.688 14.179" xmlns="http://www.w3.org/2000/svg">
<g transform="translate(-74.676 -133.85)">
<g transform="matrix(1.1816 0 0 1.1816 -13.559 -26.879)">
<path d="m101.28 137.64 0.34537-1.5353c-3.6343-0.43991-4.7787 0.99589-5.3725 3.8978l2.1428 0.86325c0.4385-1.7544 0.51118-3.5352 2.8843-3.2258m-11.575 2.3978c-0.1263 0.52952-0.24306 1.0414-0.381 1.6256 0.18662-0.12806 0.39758-0.28257 0.69603-0.34784 1.1733-0.26811 1.844 0.60255 1.8478 1.5649 0.01199 1.7995-1.5572 3.719-3.3062 3.7017-1.8214-0.019-1.1702-1.8905-0.87736-3.1383 0.57644-2.4275 1.1201-4.765 1.7046-7.214l-1.2164 2e-3c-0.67733 0-1.2411 0.41416-1.3511 0.96026l-1.4901 6.3694c-0.17498 0.73096-0.43744 1.6937-0.36618 2.5354 0.12382 1.3487 1.4326 1.8426 2.6554 1.9138 2.11 0.13123 3.8933-0.56092 5.0553-1.747 1.1405-1.1726 1.8919-3.1697 1.3667-4.9534 0.42968 0.0406 1.0114 0.19544 1.7935 0.44097l-1.4263 6.0755 1.5039 3e-3c0.52176 0 0.9532-0.36618 1.0608-0.85372l1.0781-4.6538c2.2521 0.45437 3.2713 0.0141 3.2713 0.0141-1.5282-0.17533-3.4756-1.1769-6.0452-2.0465-4.0453-1.373-5.5735-0.25188-5.5735-0.25188m-11.09 1.0463c0.2674-1.1331 0.9024-3.8135 1.1374-4.8546h-1.2397c-0.6791 0-1.2439 0.41522-1.3511 0.95921l-2.4903 10.638 1.5007 3e-3c0.52105 0 0.95744-0.36618 1.0615-0.85372l0.25541-1.0806c0.38276-1.5025 0.64946-2.9898 1.5445-3.8696 0.36336-0.36018 0.8188-0.66851 1.3956-0.73589 1.5903-0.18768 1.5032 1.0911 1.2347 2.3001-0.31644 1.4094-0.68756 2.902-0.9973 4.2397l2.341-3e-3c0.22437-0.95991 0.4512-1.8934 0.69497-2.9393 0.35066-1.5191 0.97296-3.5236-0.06491-4.542-1.3159-1.2873-4.1868-0.33655-5.0225 0.73872" fill="#003a5d"/>
<path d="m108.02 138.66c-0.2032 0.76906-0.43321 0.95744-0.86819 1.1539-1.4965 0.6678-3.7948 1.283-6.2022 1.071 2.7379-0.22401 6.0322-2.2324 7.312-3.1877 0 0-0.0416 0.18838-0.24165 0.96273" fill="#91d3d0"/>
<path d="m107.04 140.88c-2.2123 0.61277-6.0378 0.79022-8.4243 0.0621 3.5447 1.4266 5.6349 1.3741 6.4664 1.3303 0 0 0.92252 2e-3 1.4316-0.67345 0.47554-0.63077 0.52634-0.71896 0.52634-0.71896" fill="#00b0ba"/>
</g>
</g>
</svg>
